<?xml version="1.0" encoding="UTF-8"?> <svg xmlns="http://www.w3.org/2000/svg" id="Layer_1" data-name="Layer 1" width="15in" height="10in" viewBox="0 0 1080 720"><defs><style> .cls-1 { fill: #d4fbeb; } .cls-2 { fill: #a6c5dd; } .cls-3 { fill: #f5f5f5; } .cls-4 { fill: #547b91; } .cls-5, .cls-6 { fill: #7b9fb7; } .cls-6 { opacity: 0.5; } .cls-7 { fill: #23490f; } .cls-8 { fill: #000035; } .cls-9 { fill: #478e1e; } .cls-10 { fill: #4265bc; } .cls-11 { fill: #5375e2; } .cls-12 { fill: none; stroke: #4265bc; stroke-miterlimit: 10; stroke-width: 0.69px; } .cls-13 { fill: #223462; } .cls-14 { fill: #347663; } .cls-15 { fill: #152444; } .cls-16 { fill: #3f8b74; } .cls-17 { fill: #405a65; } .cls-18 { fill: #334750; } .cls-19 { fill: #408c74; } .cls-20 { fill: #92c984; } .cls-21 { fill: #dfdfea; } .cls-22 { fill: #233239; } .cls-23 { fill: #fff; } .cls-24 { fill: #3459a3; } </style></defs><path class="cls-1" d="M547.48,504.93C339,474.74,245.45,619.7,120.35,558.2c-68.24-33.55-108.58-114.06-107.51-184,2-129.26,146.09-197.75,157.39-202.92,99-45.23,196.43-17.69,246-2.9,185.9,55.44,183,179.35,327.86,201,131.33,19.6,220.59-65.48,289.59-10.65,23.82,18.92,36.37,51.52,32.93,78.45C1056.27,518.3,897.33,574.44,765.4,568.85,655.68,564.21,656.81,520.76,547.48,504.93Z"></path><g><circle class="cls-2" cx="1010" cy="320.98" r="1.12"></circle><circle class="cls-2" cx="952.08" cy="252.19" r="2.62"></circle><circle class="cls-2" cx="508.58" cy="279.13" r="2.25"></circle><path class="cls-2" d="M965,297a1.5,1.5,0,0,1-1.5,1.5H921.08c0-.06,0-.13,0-.19-.28-.56.11-1.22-.24-1.76,0-.35-.09-.7-.13-1h42.86A1.5,1.5,0,0,1,965,297Z"></path><path class="cls-2" d="M568,307a1.5,1.5,0,0,1-1.5,1.5H524.08c0-.06,0-.13,0-.19-.28-.56.11-1.22-.24-1.76,0-.35-.09-.7-.13-1h42.86A1.5,1.5,0,0,1,568,307Z"></path><rect class="cls-2" x="945.56" y="304.49" width="50.18" height="3" rx="1.5"></rect><rect class="cls-2" x="483.56" y="295.49" width="50.18" height="3" rx="1.5"></rect><path class="cls-2" d="M930.89,273.36a8.62,8.62,0,1,1,8.62-8.61A8.62,8.62,0,0,1,930.89,273.36Zm0-14.23a5.62,5.62,0,1,0,5.62,5.62A5.62,5.62,0,0,0,930.89,259.13Z"></path><circle class="cls-2" cx="563.93" cy="326.93" r="2.62"></circle><circle class="cls-2" cx="984.5" cy="329.18" r="2.62"></circle><path class="cls-2" d="M635.82,114.25a8.62,8.62,0,1,1,8.62-8.61A8.62,8.62,0,0,1,635.82,114.25Zm0-14.23a5.62,5.62,0,1,0,5.62,5.62A5.62,5.62,0,0,0,635.82,100Z"></path><circle class="cls-2" cx="652.82" cy="93.35" r="2.62"></circle><circle class="cls-2" cx="678.49" cy="111.98" r="1.12"></circle></g><g><ellipse class="cls-3" cx="765.68" cy="497.5" rx="271.68" ry="156.23"></ellipse><path class="cls-4" d="M823.06,564.56a7.34,7.34,0,0,1-12.45,0V436h12.45Z"></path><path class="cls-4" d="M944,496.12a7.33,7.33,0,0,1-12.44,0V367.54H944Z"></path><path class="cls-4" d="M761.53,418a7.32,7.32,0,0,1-12.44,0V289.42h12.44Z"></path><path class="cls-5" d="M839.65,447.73l130-80.88-1.38,6.91L839,457.4,617.05,329.52l.69-7.61Z"></path><path class="cls-2" d="M839.65,447.73l130-80.88L753.24,239l-135.5,83Z"></path><path class="cls-6" d="M826.2,384.57c-1.55,1.19-2.73,2.78-4.23,4a25.74,25.74,0,0,1-5.6,3.58c-2.71,1.27-5.62,2.19-8.19,3.68a8,8,0,0,0,5.17,1.73,22.2,22.2,0,0,0,7.06-.94,15.57,15.57,0,0,0,5.52-2.56C828.51,392,829.6,386.19,826.2,384.57Z"></path><path class="cls-6" d="M811.33,358.72a.65.65,0,0,1-.59-.26,40.06,40.06,0,0,1-7-2c-2.42-.85-4.84-1.69-7.27-2.5-5-1.68-10.13-3.26-15.31-4.47A129.07,129.07,0,0,0,767.19,347a29.73,29.73,0,0,0-13.16.94,232.66,232.66,0,0,0-25.63,10.35,262.77,262.77,0,0,0-23.8,12.91l43.5,24.66a32.73,32.73,0,0,1,8-4,38.59,38.59,0,0,1,11-1.34,98.93,98.93,0,0,0,11.55-.56,36.37,36.37,0,0,0,10.51-3,51.27,51.27,0,0,0,9.83-6.25c3.07-2.39,6-5,8.87-7.59,2-1.82,4.26-3.44,6.3-5.26,1.59-1.42,4.28-3.78,3.77-6.2C817.37,359,813.45,358.59,811.33,358.72Z"></path><g><path class="cls-7" d="M930.65,550.29a43.62,43.62,0,0,0-16.45-4.36,44.2,44.2,0,0,0-22.74,4.84c.26.48,6.46,11.28,18.87,11.61A22.32,22.32,0,0,0,930.65,550.29Z"></path><g><path class="cls-8" d="M864.52,506.06a10.78,10.78,0,0,1,.07-1.71l-10.06,4.24a3,3,0,0,0-2.83,1.2c-.09.53.5.95.25,1.51a1,1,0,0,0,.23,1c.51.74,1,0,1.49,0a1.81,1.81,0,0,1,1.35-.57,1.17,1.17,0,0,0,.86-.65l1-.44a1.8,1.8,0,0,1,1.35-.56,1.17,1.17,0,0,0,.86-.65l1-.44c.34-.52,1.07-.39,1.43-.89l1.78-.76c.29-.45.86-.42,1.25-.71C864.54,506.42,864.53,506.24,864.52,506.06Z"></path><g><path class="cls-8" d="M871.68,495.21a7.71,7.71,0,0,1,.24-.89c0-.54,0-1.09,0-1.63a11.53,11.53,0,0,1,3.18-8c-.64-.87-1.26-1.75-1.88-2.63-1.73-2.46-3.54-4.76-4.61-7.53a4.58,4.58,0,0,0-.55,1.92,26.87,26.87,0,0,1-1.77,4.34,5.92,5.92,0,0,0-.78,2.45,36,36,0,0,1-2.08,5.07c-.06,1.57-.9,2.89-1.48,4.28a1.38,1.38,0,0,0,0,1.4,33.12,33.12,0,0,0,4.31,5.84A12.76,12.76,0,0,1,871.68,495.21Z"></path><path class="cls-8" d="M868.73,517.22a10,10,0,0,1-3.42-7.21,13.52,13.52,0,0,1-.58-2.12l-2.41,1.33-1.69,1a.82.82,0,0,0-1,.44l-1.69,1a.81.81,0,0,0-1,.44l-1.69,1a.81.81,0,0,0-1,.44l-1,.43a.81.81,0,0,0-.2.89,24.1,24.1,0,0,1,1.39,3.06c.11.38.17.79.57,1a17,17,0,0,0,5,5.86c2.31,1.83,2.66,1.71,4.61-.53l.1-.1a9.51,9.51,0,0,0,3.31-3.53c.6-.84,1.25-1.64,1.92-2.43C869.53,517.88,869.13,517.55,868.73,517.22Z"></path><path class="cls-8" d="M900.3,529.75c-1.57-.46-3.09-1.11-4.62-1.7-1.46,1.84-2.93,3.66-4.52,5.4a5.5,5.5,0,0,1-1.61,1.88c-.43.6-1.15,1-1.35,1.78a8.52,8.52,0,0,1-2,2.34c-.44.61-1.16,1-1.36,1.79-.15.57-1,.94-.51,1.71a4.86,4.86,0,0,0,1.85,2.21,21,21,0,0,0,6.61,4.93,1.37,1.37,0,0,0,1.92-.39c.56,0,.41-.53.55-.84,1.56-2.07,3.15-4.14,4.64-6.27,1.32-1.89,2.67-3.78,4.06-5.62C902.69,534.59,901.44,532.21,900.3,529.75Zm-10,9.36a.8.8,0,0,1-1.1-.53.66.66,0,0,1,.45-.86.76.76,0,0,1,1,.29C890.74,538.49,890.67,538.94,890.27,539.11Zm2.07-2.55c-.39.16-.68.13-.89-.29a.86.86,0,0,1,.33-1.19.82.82,0,0,1,1,.38A.78.78,0,0,1,892.34,536.56Zm1.85-2.63a.68.68,0,0,1-.89-.43c-.22-.49.08-.77.42-1,.44-.06.88,0,1,.48A.83.83,0,0,1,894.19,533.93Zm2-2.76a.48.48,0,0,1-.65-.33.59.59,0,0,1,.32-.8c.32-.16.51,0,.63.31S896.42,531,896.15,531.17Z"></path><path class="cls-8" d="M880.3,524A36.14,36.14,0,0,1,871,519l-5.61,6.58c-.32.37-.74.69-.78,1.24,1.62.55,3.29.3,4.94.34a1.67,1.67,0,0,1,1.24.08,7.31,7.31,0,0,0,2,.38l.35.14c.31.19.67.1,1,.2,1.56.22,2.7,1.33,4.1,1.89.51.13.57-.24.64-.59a4.38,4.38,0,0,1,1-1.29c.55-.08.7-.5.79-1a4.47,4.47,0,0,1,1-1.28l.55-.69A11.62,11.62,0,0,1,880.3,524Z"></path><path class="cls-8" d="M893.6,527.31c-1.33-.41-2.69-.68-4-1-.81-.05-1.6-.09-2.41-.1a12.14,12.14,0,0,1-3.81-.67l-.79,1a1.59,1.59,0,0,1-.8.94c-.15.3-.48.49-.54.85a1.68,1.68,0,0,1-.82.92c-.15.3-.46.49-.56.83,0,.61-1.25.88-.48,1.72A32.42,32.42,0,0,1,882,538a8,8,0,0,0,1.15,2.45c.6.55.64-.13.86-.4,1.25-1.81,2.8-3.37,4.2-5s2.66-3.28,4-4.9l2.16-2.53Z"></path><path class="cls-8" d="M865.57,501.11a21.84,21.84,0,0,1-3.69-4.65c-.42-.7-.89-1.38-1.3-2.09a.93.93,0,0,0-1.15-.46q-7.33,1.45-14.68,2.87l-.87.07a.6.6,0,0,0-.75.33c2.26,1.83,4.72,3.46,6.17,6.12a1.44,1.44,0,0,0,.8,1.16h0a1.51,1.51,0,0,1,.47,1.6,2.1,2.1,0,0,0,.44,1.32c.17.84.54,1.09,1.38.65s1.77-.76,2.65-1.13a3.08,3.08,0,0,0,2.2-.57,15.15,15.15,0,0,1,4.55-2l3.06-1.27A10.5,10.5,0,0,1,865.57,501.11Z"></path><path class="cls-8" d="M835.38,488.1,849,486.31a26.86,26.86,0,0,0,3-.4,3,3,0,0,1,3.06.93,33.5,33.5,0,0,1,4.06,5c.56.8.11,1-.63,1.13q-7.57,1.29-15.14,2.62a4.22,4.22,0,0,1-3,0,3.26,3.26,0,0,1-1.21-.7c-1.13-1.3-2.67-2.28-3.22-4a2.7,2.7,0,0,1-1-2.3C835,488.33,835.19,488.21,835.38,488.1Z"></path><path class="cls-8" d="M868,472.46c0-.14,0-.28-.07-.41a1.73,1.73,0,0,0-.52-.14,3.51,3.51,0,0,0-2.31.37l-2,.24c-.3-.19-.61-.36-.87.07l-1-.16a28.67,28.67,0,0,0-2.76-1.55c-.5-.1-.57-.83-1.2-.81-.47,2.11-.57,4.29-1.25,6.35a37.19,37.19,0,0,1-1.1,7.1,1.67,1.67,0,0,0,.74,2.06c.33.25.54.63.93.81a22.14,22.14,0,0,1,3.48,4.52c.17.3.41.83.89.71s.44-.57.51-.92a11.55,11.55,0,0,1,1.26-3.31,9.36,9.36,0,0,1,1.22-3.51,1.57,1.57,0,0,0,.59-1.45,11.3,11.3,0,0,1,1.37-3.89,1.55,1.55,0,0,0,.59-1.45,12.12,12.12,0,0,1,1.52-4.24l0-.09C868.05,472.66,868,472.56,868,472.46Z"></path><path class="cls-8" d="M853.3,464.94a2.35,2.35,0,0,0-1.79-1.33,3.32,3.32,0,0,1-1.45-.6,3,3,0,0,0-2.58-.43c-.21.1-.38.22-.4.47a4.06,4.06,0,0,1,.08.68c-.21,4.59-.38,9.18-.68,13.77a2.51,2.51,0,0,0,1.2,2.54c1.77,1.16,3.54,2.3,5.28,3.48.8.55,1.06.38,1.15-.56a38.23,38.23,0,0,1,.87-6.12,35.17,35.17,0,0,1,.73-5.41c.35-.23.15-.57.17-.86a.5.5,0,0,1,0-.12.58.58,0,0,1,0-.62c.33-.23.16-.54.16-.83l0-.15C855.9,467,854.46,466.09,853.3,464.94Zm-5.62,12a.61.61,0,0,1,.87.41.65.65,0,1,1-1.24.37A.59.59,0,0,1,847.68,477Zm1.09-1.47a.79.79,0,0,1-1-.44.81.81,0,0,1,.47-1c.47-.21.78,0,1,.48S849.27,475.36,848.77,475.5Zm-.87-3.41a.81.81,0,1,1,1.5-.61.73.73,0,0,1-.47,1A.74.74,0,0,1,847.9,472.09Z"></path><path class="cls-8" d="M908.29,545.57c-.23-.47-.42-1-.63-1.48-1-2.05-2.07-4.06-3.14-6.05a7,7,0,0,1-1.35,1.77,6.71,6.71,0,0,0-1.11,1.68,78.52,78.52,0,0,1-5.61,8.07c-.15.3-.47.49-.55.84,0,.11-.09.23-.14.35-.14.73.44.8.9.92a19.27,19.27,0,0,0,4.94.82.58.58,0,0,1,.61,0c1.09.21,2.2.81,3.23-.15a2.72,2.72,0,0,1,.94-1.3,1.93,1.93,0,0,0,.47-1.08c.46-.58.67-1.35,1.33-1.78.21-.29.44-.56.66-.84C908.67,546.77,908.49,546.17,908.29,545.57Z"></path><path class="cls-8" d="M834,479.71c3.14,0,6.24-.38,9.35-.63a2.55,2.55,0,0,1,2.23.75c2,2,4.41,3.25,6.66,5.13l-17.34,1.88c-.36-.07-.44-.38-.56-.66a15.41,15.41,0,0,1-.42-5.24A1.55,1.55,0,0,1,834,479.71Z"></path><path class="cls-8" d="M845.86,464.47l-.33,9.9a7.93,7.93,0,0,1,0,1.38c-.11.59.46,1.5-.29,1.71s-1-.73-1.36-1.2c-1.78-2.05-3.53-4.13-5.31-6.17a3.14,3.14,0,0,1-.76-1.87c-.21-1.82-.49-3.63-.74-5.44-.09-.92,0-1.5,1.19-1a6.81,6.81,0,0,0,1.84.3.91.91,0,0,1,1,.17c.86,0,1.72,0,2.57.07C845.71,462.46,845.71,462.47,845.86,464.47Z"></path><path class="cls-8" d="M831.62,469.89c1.32.35,2.63-.13,4,0a1.91,1.91,0,0,1,1.42.62c2.16,2.18,4,4.64,6,6.92.15.17.38.35.24.58-.23.39-.68.24-1,.25-2.83.14-5.67.23-8.5.33-.62-1.18-.44-2.57-1-3.76-.26-.28-.16-.58-.06-.87l-.52-1.28c0-1-.85-1.68-.82-2.67Z"></path><path class="cls-8" d="M836,462.59c-.21,1.68.56,3.28.47,5.12a107,107,0,0,0-8.36-8.17c-.15-.11-.29-.24-.18-.46a8.3,8.3,0,0,1,4.59.92,5.72,5.72,0,0,0,1.41.55A2,2,0,0,1,836,462.59Z"></path><path class="cls-8" d="M829,462.11c-.63-.53-1.07-1.42-2.1-1.35.13.34.26.68.4,1a2.88,2.88,0,0,0,1.18,2.81,16.17,16.17,0,0,0,2.46,4.38c1.42-.23,2.89.18,4.49-.26A68.16,68.16,0,0,0,829,462.11Zm3,4.32c.37-.16.6,0,.74.34s.12.66-.23.82a.72.72,0,0,1-.93-.33C831.32,466.87,831.59,466.59,832,466.43Z"></path><path class="cls-8" d="M909.39,549.59c-.07-.37-.15-.73-.24-1.09-.62,1.35-1.54,2.52-2.2,3.84,1,.77,2,.42,3,.12C909.75,551.5,909.59,550.54,909.39,549.59Z"></path></g></g><g><g><g><path class="cls-8" d="M921.15,436.93a89.06,89.06,0,0,1-8.86,9.05,57.13,57.13,0,0,1-15,9.58c-1.59.65-1.61.63-1.35,2.33,1.59,10.23,3.21,20.45,4.78,30.68.28,1.8.55,3.6.85,5.4.23,1.42.51,1.52,1.68.65.44-.32.84-.7,1.27-1a106.54,106.54,0,0,0,19.13-17.42c1.9-2.26,3.71-4.58,5.47-6.94.39-.52,1-1.06.44-1.85-1.15-1.54-2.11-3.21-3.28-4.75-1.36-1.76-2.79-3.53-3.15-5.85a2.73,2.73,0,0,1-.29-1,8.3,8.3,0,0,1-.68-2.55,36.1,36.1,0,0,1,.17-9.23,39.15,39.15,0,0,0,.65-8.51C921.92,435.45,921.64,436.38,921.15,436.93Zm-5.15,9.5c.24.27-.07.49-.09.56a11.39,11.39,0,0,1-2.71,2.74,80.92,80.92,0,0,1-10.34,6.61,3.76,3.76,0,0,1-1.1.37c-.36.07-.85.52-1.08-.11s.33-.74.68-.93a102.62,102.62,0,0,0,11.23-7.16c.88-.64,1.73-1.31,2.61-1.95C915.42,446.4,915.69,446.09,916,446.43Z"></path><path class="cls-8" d="M897.49,481.49a8.2,8.2,0,0,1-2.32,0,51.12,51.12,0,0,1-11.83-2.88,88.44,88.44,0,0,1-14.1-6.55c-.53-.3-1-.72-1.72-.56-.56.76-.1,1.37.29,2a2.78,2.78,0,0,1,.39,1.25,7,7,0,0,0,.95,2.65c.07.21.13.41.19.62a4.69,4.69,0,0,0,.86,2.33,11.67,11.67,0,0,1,.84,2.83c.21,1.82.57,3.62.77,5.44,0,.6-.42,1.16-.15,1.77.17,1-.49,1.86-.72,2.78a7.12,7.12,0,0,1-1.34,2.48l-.34.6c-.49.32-.46,1-1,1.33l-.34.61c-.39.19-.34.74-.75.92l-.34.61c-.9,1.2-.92,1.51,0,2.17,3.47,2.47,7.07,4.75,10.75,6.88a154,154,0,0,0,22,10.53,36.08,36.08,0,0,0,4.16,1.48c.94.25,1.2,0,1.15-1,0-.23-.06-.46-.1-.69q-2.44-15.39-4.86-30.77c-.3-1.88-.62-3.75-.89-5.63C898.92,481.76,898.49,481.29,897.49,481.49Zm-.27,34.84c-3-1.43-6.18-2.47-8.65-4.16a108.43,108.43,0,0,1-12.78-7.94c-.4-.26-.79-.67-.51-1.15s.82-.29,1.23,0c2,1.24,4,2.41,5.83,3.76,1.3.94,2.74,1.58,4.1,2.39,3.49,2.09,7.26,3.65,10.83,5.58.21.11.41.23.62.33.45.22.88.6.66,1.07S897.66,516.53,897.22,516.33Zm4.66.79c-.16.31-.38.48-.73.27a.55.55,0,0,1-.28-.77.54.54,0,0,1,.7-.28C902,516.54,902.06,516.79,901.88,517.12ZM894,484.5a47.69,47.69,0,0,1-5.93-1,46,46,0,0,1-10.46-3.94c-.48-.26-1-.5-1.43-.78-.24-.14-.66-.24-.45-.66s.56-.23.84-.14c1.06.36,2.12.7,3.15,1.14a46,46,0,0,0,12.47,3.69,15.46,15.46,0,0,1,2,.48c.36.09.69.27.66.69S894.36,484.54,894,484.5Zm3.59.32c-.17.29-.52.28-.79.27-.29-.27-.42-.56-.28-.86a.59.59,0,0,1,.79-.29A.61.61,0,0,1,897.55,484.82Z"></path><path class="cls-8" d="M933.72,482.08A83.14,83.14,0,0,1,920,493.65a50.9,50.9,0,0,1-14.76,6.51c-.78.2-1.92.18-2.24.67s.15,1.53.27,2.33c.88,5.72,1.74,11.44,2.63,17.15,1.4,8.92,2.83,17.83,4.22,26.75.91,5.79,1.78,11.59,2.68,17.38a1.83,1.83,0,0,0,1.28-2.25c-.27-2-.57-4.05-.76-6.08-.8-8.61-1.77-17.2-.61-25.87A46.35,46.35,0,0,1,916,518c-.05-.51.5-.82.47-1.33.15-.27.29-.55.44-.83a33.55,33.55,0,0,1,3-5.53l.67-1.23c.49-.32.46-1,1-1.33l.34-.6c.49-.32.46-1,1-1.34.15-.27.3-.53.45-.81.45-.25.4-.88.86-1.12.11-.21.23-.4.35-.61.38-.19.33-.74.74-.92.11-.2.23-.4.34-.61.44-.25.4-.88.86-1.13l.45-.8c.57-.46.6-1.3,1.19-1.74l.89-1.63a27.48,27.48,0,0,0,2.55-4.71l.76-1.43c0-.74.73-1.22.8-2l.21-.41c-.08-.44.42-.7.36-1.13a15.55,15.55,0,0,0,.77-4.87C934,481.46,933.92,481.89,933.72,482.08ZM906.23,502.7a.57.57,0,0,1-.76.33c-.4-.17-.43-.49-.26-.86a.57.57,0,0,1,1,.53Zm20.36-11.1c.43.37,0,.77-.22,1.28a9.18,9.18,0,0,1-1,.94,46.69,46.69,0,0,1-14.73,7.64c-.76.22-2,.69-2.2.11-.21-.84,1.08-.9,1.78-1.18a55.54,55.54,0,0,0,11.9-6.17q1.65-1.19,3.33-2.34C925.8,491.65,926.2,491.26,926.59,491.6Z"></path><path class="cls-8" d="M917.48,427a60.91,60.91,0,0,1-5.55,7.24,108.68,108.68,0,0,1-11.27,11.94,57.16,57.16,0,0,1-4.74,3.73c-.7.51-.9.4-1-.44-.57-3.78-1.2-7.55-1.79-11.32q-2-12.75-4-25.5c-.49-3.15-1-6.31-1.5-9.74l1.7.91a27.53,27.53,0,0,1,3.59,6,32.68,32.68,0,0,0,4.21,6.74,3.8,3.8,0,0,0,1,.73c.18.41.73.36.92.75l2.06,1.11c.58,0,.94.6,1.54.58l.61.32c.52,0,.82.52,1.34.47l.82.43c.59,0,1,.6,1.54.59l.82.42c.59,0,1,.61,1.55.59l.82.43c.87.13,1.47.9,2.36,1l3.87,2.09c.25.47.89.41,1.13.87Z"></path><path class="cls-8" d="M880,432.2c0,2.6.55,5.22-.22,7.81.08.44-.42.69-.36,1.12l-.12.21c-.39.2-.33.75-.75.92a5,5,0,0,1-2.1,1.91c-2.18,1.26-4.67,1.39-7.07,1.87-.06.44.25.72.47,1,1.57,2.17,3.08,4.37,4.66,6.52a110.43,110.43,0,0,0,18.68,20,30.48,30.48,0,0,0,4.41,3.29,11,11,0,0,0-.33-3.22c-1.17-7.35-2.41-14.69-3.59-22-.65-4.08-1.22-8.17-1.85-12.25-.07-.48-.16-.91-.8-1.12a30.64,30.64,0,0,1-9.8-5.56C880.9,432.4,880.56,432,880,432.2Zm10.49,8.34a.42.42,0,0,1-.59.13c-.26-.14-.22-.36-.11-.57s.33-.32.56-.14A.4.4,0,0,1,890.51,440.54Zm-2-1.21c-.19.54-.78.39-1.11.22a26.31,26.31,0,0,1-4-2.18c-.62-.45-1.21-.95-1.81-1.42-.16-.12-.33-.29-.22-.48s.4-.2.6-.09l3.07,1.65,2.76,1.5C888.15,438.71,888.66,438.87,888.49,439.33Z"></path><path class="cls-8" d="M867.71,446.71a23.16,23.16,0,0,1,2.84,3.92A112,112,0,0,0,879,461.68a94.42,94.42,0,0,0,11.59,11.47,37.7,37.7,0,0,0,6.73,4.85c.91.46.88,1.21,1,1.94,0,.52-.44.36-.78.34a44.54,44.54,0,0,1-10.66-2.09c-6.88-2.1-13.2-5.42-19.45-8.9a1.47,1.47,0,0,1-.77-.94c-.51-.21-.55-.61-.46-1.07l-.09-.32a15.93,15.93,0,0,1-.7-4.6h0a3.33,3.33,0,0,1-.14-2.2,35.35,35.35,0,0,1,.16-8.84A7.09,7.09,0,0,1,867.71,446.71Z"></path><path class="cls-8" d="M865.13,502.46l5.35,3.61c1.12.76,2.29,1.44,3.45,2.12,2.3,1.35,4.52,2.86,6.91,4,4.3,2.09,8.52,4.33,13,6.06a82.44,82.44,0,0,0,10.47,3.61.84.84,0,0,1,.75.86c0,.6-.46.64-.88.71a41.62,41.62,0,0,1-11.9,0,86,86,0,0,1-14.46-3.17c-3-.93-6-2.1-9-3.18a2.09,2.09,0,0,1-1.09-.83c-.64-.08-.87-.53-1-1.09a1.4,1.4,0,0,0-.6-.84,11.82,11.82,0,0,1-2.57-7,3.41,3.41,0,0,1,.34-1.67c.19-.52.37-1,.55-1.54,0-.56.57-.9.53-1.46A.22.22,0,0,1,865.13,502.46Z"></path><path class="cls-8" d="M870.72,520c1.6,0,2.92.88,4.37,1.34a81.57,81.57,0,0,0,20.84,4.1,21.42,21.42,0,0,0,8.49-.84c.87-.32,1,.12,1.09.76.94,6,1.87,12,2.84,18.07,1.08,6.74,2.19,13.47,3.28,20.21.07.42.09.85.13,1.27a.49.49,0,0,1-.71-.12c-1.24-1.12-1.36-2.74-1.86-4.19l-.46-1.29a2.1,2.1,0,0,1-.27-1.47,4,4,0,0,0-.47-1.57,4.25,4.25,0,0,1-.36-1.79,18.86,18.86,0,0,0-1-3.46,25.86,25.86,0,0,1-1.41-5.26l-.18-.62a3.54,3.54,0,0,1-.47-1.58,2.68,2.68,0,0,0-.38-1.26,3.73,3.73,0,0,1-.68-1.7,1.48,1.48,0,0,0-.28-.93,3.12,3.12,0,0,1-.48-1.07l-.19-.62c-.56-1-1.31-2-1.78-3.08h0c-.34-.49-1-.74-1.11-1.39a3.87,3.87,0,0,0-1.33-1,1.38,1.38,0,0,1-.84-.5,1.33,1.33,0,0,0-1-.5L890.69,530a2.23,2.23,0,0,1-1.45-.26l-1.54-.56c-.54.21-1-.2-1.45-.26a9.35,9.35,0,0,1-2.17-.89c-.43.06-.69-.44-1.13-.36a.66.66,0,0,1-.62-.32c-.58,0-.94-.6-1.54-.58l-.4-.21a1.16,1.16,0,0,1-1-.31,14.55,14.55,0,0,0-3.24-1.71,1.45,1.45,0,0,0-.7-.64c-.24-.46-.87-.41-1.12-.86l-.83-.44A7.47,7.47,0,0,1,870.72,520Z"></path><path class="cls-8" d="M934.24,479.21a8.64,8.64,0,0,1-2.37,2.66,80.29,80.29,0,0,1-12.25,10.29,58.54,58.54,0,0,1-11.8,5.88c-1.42.52-2.86,1-4.29,1.45-.68.24-.77,0-.94-.6-.53-1.77-.11-2.88,1.57-3.95a92.57,92.57,0,0,0,13.36-10.58,105,105,0,0,0,11.5-13c.47-.62.64-1.64,1.68-1.75.8,2.15,1.84,4.21,2.63,6.37C933.71,477.07,933.62,478.24,934.24,479.21Z"></path><path class="cls-8" d="M922.49,432.92c-.09,1.28-1.18,1.95-1.89,2.8a78.11,78.11,0,0,1-14.18,13.43,71.75,71.75,0,0,1-9.79,5.76c-.54.27-.8.16-.91-.39s-.27-1.37-.38-2c-.07-.41.17-.64.49-.84,6.46-3.9,11.39-9.44,16.23-15.07,2.08-2.43,4.07-4.93,5.93-7.53.34-.47.67-.89,1.32-.48A15.77,15.77,0,0,1,922.49,432.92Z"></path><path class="cls-8" d="M885.66,402.72c.7.23.56.89.63,1.37q2.31,14.48,4.56,29a1.19,1.19,0,0,1-.1,1,31.23,31.23,0,0,1-3.89-3.91,72.91,72.91,0,0,1-6.28-8.91,5.7,5.7,0,0,1-.36-1.08,72.08,72.08,0,0,1,2.39-13c.09-.29.22-.57.33-.86,0-.51.52-.81.47-1.33A6.76,6.76,0,0,1,885.66,402.72Z"></path><path class="cls-8" d="M880,423.45c.67.16.72.81,1,1.26a46.22,46.22,0,0,0,9,10.49c.47.39,1.29.4,1.34,1.29,0,.58-.1.73-.63.45a48.53,48.53,0,0,1-8.76-5.37l-2.19-1.87A39.53,39.53,0,0,1,880,423.45Z"></path></g><g><path class="cls-8" d="M940.7,470.24a51.55,51.55,0,0,1-11.78-10.91,80.23,80.23,0,0,1-6.38-9.45c-.35-.56-.44-1.43-1.36-1.52a35.12,35.12,0,0,0-.8,7.65,33,33,0,0,1-1.19,7.52c14.8,2.17,17.8,20.83,9,29.79a29.32,29.32,0,0,1-3.1,6.15c1,1.11,2,2.22,3,3.3.34.35.63.75,1,1.1.9,1,1.16.91,1.59-.3q.82-2.32,1.63-4.65c3-8.8,6.13-17.6,9.18-26.4C942,471.06,942,471.07,940.7,470.24Zm-3.21.36c-.31.53-.67,0-1-.07a3.83,3.83,0,0,1-.91-.5,72.94,72.94,0,0,1-8.09-7.53,10.4,10.4,0,0,1-2-2.86c0-.07-.24-.31,0-.51s.51.06.69.25c.67.7,1.31,1.43,2,2.14a92.69,92.69,0,0,0,8.78,8.15C937.31,469.9,937.75,470.16,937.49,470.6Z"></path><path class="cls-8" d="M934.71,494c-.54,1.62-1.12,3.22-1.69,4.84q-4.62,13.23-9.28,26.47a5.84,5.84,0,0,0-.2.59c-.2.85,0,1.12.86,1.06a34.6,34.6,0,0,0,3.93-.64,139.38,139.38,0,0,0,21.16-5.78c3.6-1.3,7.16-2.73,10.63-4.36.93-.43,1-.71.36-1.92l-.2-.59c-.33-.23-.2-.71-.51-.94l-.21-.59c-.4-.36-.26-1-.64-1.34l-.21-.59a6.4,6.4,0,0,1-.78-2.4c0-.86-.51-1.69-.19-2.58.33-.51,0-1.07.15-1.6.47-1.58,1.08-3.11,1.56-4.69a10.56,10.56,0,0,1,1.2-2.37,4.32,4.32,0,0,0,1.14-1.93l.27-.51a6.69,6.69,0,0,0,1.27-2.19,2.49,2.49,0,0,1,.54-1.06c.45-.48,1-.94.58-1.71-.58-.26-1.1,0-1.61.22a81,81,0,0,1-13.54,3.53,46.13,46.13,0,0,1-10.94.63,6.81,6.81,0,0,1-2.06-.36C935.44,492.83,935,493.17,934.71,494Zm-5,29.75c-.12-.45.32-.72.76-.84l.6-.2c3.48-1.13,7.06-1.9,10.49-3.19,1.34-.5,2.72-.83,4-1.46,1.87-.89,3.84-1.6,5.76-2.38.41-.17.9-.26,1.09.23s-.25.76-.64.93a97,97,0,0,1-12.61,5c-2.45,1.1-5.44,1.5-8.33,2.28C930.48,524.17,929.89,524.28,929.75,523.72Zm8.51-27.93c0-.37.36-.48.69-.5a14.61,14.61,0,0,1,1.86-.11,41.56,41.56,0,0,0,11.65-1.24c1-.23,2-.36,3-.51.25,0,.61-.06.72.27s-.27.42-.51.5c-.46.17-.93.31-1.39.46a40.63,40.63,0,0,1-15.32,1.74C938.57,496.37,938.21,496.27,938.26,495.79Z"></path><path class="cls-8" d="M927.05,523.37a.47.47,0,0,1,.57.36.49.49,0,0,1-.37.64c-.34.13-.5-.06-.6-.36S926.64,523.48,927.05,523.37Z"></path><path class="cls-8" d="M936.09,495.37a.54.54,0,0,1,.66.38.67.67,0,0,1-.39.72c-.24,0-.55-.08-.65-.36A.54.54,0,0,1,936.09,495.37Z"></path><path class="cls-8" d="M926.39,508.45a42.74,42.74,0,0,1-5.4-3.07q-.27.71-.57,1.44c.51.34,1,.69,1.54,1s1.71.63,1.38,1.34c-.23.49-1.29-.13-1.92-.45s-1-.56-1.45-.83a55.43,55.43,0,0,1-5.22,9,23.07,23.07,0,0,1-1.65,2c.15.53.37,1,.5,1.58.08.27.16.54.25.8-.11.45.33.81.2,1.26a42,42,0,0,1,.87,11.36c-.38,7.86-2.63,15.32-4.72,22.81-.5,1.77-1.09,3.51-1.66,5.26a1.64,1.64,0,0,0,.77,2.2c1.73-5,3.44-10,5.18-15q4-11.51,8.06-23,2.57-7.36,5.1-14.76c.23-.69.82-1.52.61-2S927.05,508.75,926.39,508.45Z"></path><path class="cls-8" d="M925.47,509.9a.47.47,0,0,1,.65.34c.09.35,0,.63-.37.71a.52.52,0,0,1-.62-.41A.47.47,0,0,1,925.47,509.9Z"></path><path class="cls-8" d="M927.39,441.71a54,54,0,0,0,3.74,7.3,99.69,99.69,0,0,0,8.06,12.4,51.2,51.2,0,0,0,3.59,4.07c.54.56.74.5,1-.22,1.12-3.26,2.28-6.49,3.42-9.74q3.84-11,7.68-21.93c.95-2.72,1.88-5.43,2.9-8.39l-1.65.54A25.11,25.11,0,0,0,952,430.5a28.82,28.82,0,0,1-4.82,5.29,3.69,3.69,0,0,1-1,.49c-.23.33-.71.19-.94.51l-2,.65c-.52-.1-.94.38-1.46.27l-.6.18c-.45-.11-.81.33-1.26.2l-.8.25c-.52-.09-.93.38-1.46.27l-.79.24c-.52-.09-.94.38-1.46.27l-.8.25c-.79,0-1.45.56-2.25.52l-3.78,1.23c-.28.37-.84.22-1.13.59Z"></path><path class="cls-8" d="M958.56,452.57a27.93,27.93,0,0,1-9.58,3.35c-.6.07-.75.44-.89.86-1.22,3.51-2.38,7-3.62,10.54-2.23,6.32-4.51,12.62-6.73,18.95a9.59,9.59,0,0,0-.81,2.79,27.29,27.29,0,0,0,4.43-2.2,99.36,99.36,0,0,0,19.77-14.7c1.75-1.66,3.45-3.36,5.18-5,.25-.24.57-.43.58-.84-2-.8-4.22-1.32-5.95-2.79a4.6,4.6,0,0,1-1.56-2c-.34-.22-.2-.7-.51-.93l-.07-.21c.12-.37-.28-.68-.14-1.06-.26-2.41.66-4.64,1.07-6.95C959.28,452.11,958.92,452.37,958.56,452.57Zm-9.26,5c.24-.11.39,0,.48.22s.07.41-.19.49a.39.39,0,0,1-.5-.21A.37.37,0,0,1,949.3,457.53Zm2.5-.85,2.68-.88c1-.32,2-.65,3-1,.2-.07.44-.09.52.17s-.11.31-.27.39c-.61.32-1.22.67-1.84,1a22.76,22.76,0,0,1-3.86,1.3c-.32.09-.87.13-.95-.37S951.47,456.79,951.8,456.68Z"></path><path class="cls-8" d="M968.28,467.18a21.34,21.34,0,0,0-3.15,3,99.62,99.62,0,0,1-9.25,8.42,86.25,86.25,0,0,1-12.12,8.29,34.7,34.7,0,0,1-6.74,3.21c-.89.26-1,.93-1.15,1.56-.13.45.33.39.63.42a40,40,0,0,0,9.78-.12c6.43-.75,12.56-2.67,18.66-4.74a1.36,1.36,0,0,0,.84-.71c.48-.1.58-.45.58-.88l.13-.26a14.69,14.69,0,0,0,1.36-4h0a3,3,0,0,0,.48-1.92,31.64,31.64,0,0,0,1.28-7.86A6.27,6.27,0,0,0,968.28,467.18Z"></path><path class="cls-8" d="M961.57,517c-1.78.78-3.56,1.55-5.33,2.34-1.11.49-2.26.9-3.39,1.32-2.25.82-4.47,1.8-6.77,2.44-4.14,1.15-8.25,2.45-12.49,3.27a74.38,74.38,0,0,1-9.85,1.51.74.74,0,0,0-.8.64c-.12.52.3.64.66.76a37.09,37.09,0,0,0,10.54,1.94,78.91,78.91,0,0,0,13.31-.47c2.86-.33,5.68-.9,8.51-1.37a1.8,1.8,0,0,0,1.1-.56c.59,0,.86-.32,1.05-.8a1.33,1.33,0,0,1,.67-.65,10.67,10.67,0,0,0,3.4-5.74,3,3,0,0,0,0-1.53c-.08-.49-.15-1-.23-1.45.1-.49-.36-.89-.24-1.38A.2.2,0,0,0,961.57,517Z"></path><path class="cls-8" d="M953.78,531.61c-1.41-.28-2.73.3-4.09.48a73.73,73.73,0,0,1-19.12.26,19.3,19.3,0,0,1-7.37-2.12c-.72-.42-.9-.05-1.09.5q-2.72,7.77-5.43,15.54c-2,5.8-4.12,11.58-6.18,17.38-.13.36-.21.73-.31,1.1a.45.45,0,0,0,.64,0c1.28-.8,1.65-2.21,2.33-3.41l.61-1.07a2,2,0,0,0,.48-1.26,3.73,3.73,0,0,1,.66-1.32,3.82,3.82,0,0,0,.62-1.52,15.8,15.8,0,0,1,1.47-2.9,23.58,23.58,0,0,0,2.09-4.43l.27-.52A3.31,3.31,0,0,0,920,547a2.36,2.36,0,0,1,.53-1.06,3.24,3.24,0,0,0,.88-1.39,1.4,1.4,0,0,1,.4-.79,3,3,0,0,0,.6-.86l.27-.52c.66-.84,1.48-1.55,2.07-2.45h0c.38-.38,1-.5,1.21-1.05a3.29,3.29,0,0,1,1.33-.64,1.26,1.26,0,0,0,.83-.32,1.21,1.21,0,0,1,1-.28l5.38-.43a2,2,0,0,0,1.33,0l1.45-.25c.45.27.89,0,1.33,0a8,8,0,0,0,2.06-.43c.37.12.68-.28,1.06-.14a.59.59,0,0,0,.6-.18c.52.09.93-.38,1.46-.27l.39-.12a1.06,1.06,0,0,0,.9-.11,12.56,12.56,0,0,1,3.15-1,1.39,1.39,0,0,1,.73-.45c.28-.37.84-.22,1.13-.58l.81-.26A6.64,6.64,0,0,0,953.78,531.61Z"></path><path class="cls-8" d="M922,446.11c-.12,1.16.73,1.92,1.22,2.79a70.54,70.54,0,0,0,10.39,14.18,64.74,64.74,0,0,0,7.74,6.68c.44.33.68.28.87-.2s.46-1.16.67-1.75c.13-.35,0-.59-.31-.82-5.08-4.49-8.55-10.2-11.93-16-1.45-2.48-2.81-5-4-7.62-.22-.48-.45-.9-1.09-.65A14.41,14.41,0,0,0,922,446.11Z"></path><path class="cls-8" d="M959.5,425.32c-.66.09-.64.7-.79,1.11q-4.38,12.44-8.71,24.9a1.07,1.07,0,0,0-.07.89,28.24,28.24,0,0,0,4.08-2.83,65.9,65.9,0,0,0,7-6.88,4.94,4.94,0,0,0,.49-.9,64,64,0,0,0,0-11.91c0-.27-.09-.54-.14-.81.1-.45-.33-.81-.21-1.26A6.08,6.08,0,0,0,959.5,425.32Z"></path><path class="cls-8" d="M961.16,444.59c-.62,0-.77.6-1.12,1a41.59,41.59,0,0,1-9.69,7.83c-.48.27-1.2.15-1.39.92-.12.51,0,.67.48.51a43.61,43.61,0,0,0,8.62-3.35l2.25-1.29A36.21,36.21,0,0,0,961.16,444.59Z"></path></g><path class="cls-9" d="M891.46,550.77a34.52,34.52,0,0,0,39.24-.59c1.75,15.81-4.25,28.68-13.6,32a16.5,16.5,0,0,1-10.64,0C896.85,578.92,890.48,566.33,891.46,550.77Z"></path></g><path class="cls-8" d="M922.19,504.94l5.88,3.33,1.35-2.7-4.75-5.1Q923.44,502.7,922.19,504.94Z"></path></g></g><path class="cls-6" d="M784.34,318.45c-1.28,6.08,11.66,13.47,20.74,18.67,20.94,12,52.73,21.17,58.07,12.44,4.27-7-8.39-25.25-24.19-33.87C816.49,303.43,786.15,309.87,784.34,318.45Z"></path><g><path class="cls-10" d="M825.82,383.66a14.11,14.11,0,0,1,6.94-8.29A30,30,0,0,1,844.45,372c4.83-.54,9.74-.61,14.49-1.77,1.8-.44,4.4-1,4.52-3.29.11-2-1.56-3.8-2.77-5.19-5.42-6.15-13.24-9.38-20.25-13.28a27.68,27.68,0,0,1-2.59-1.5,1.1,1.1,0,0,1-.57-1.06A1.5,1.5,0,0,1,838,345a6,6,0,0,1,2.8-.78c1.29-.14,2.59-.25,3.89-.34a128.31,128.31,0,0,1,15.44-.17c2.6.13,5.18.37,7.76.63,1.94.19,4.42.07,5.32-2a2.8,2.8,0,0,0-.38-2.7,22.1,22.1,0,0,0-2.36-2.66l-5.39-5.78-2.58-2.77c-.3-.32-.79.17-.48.49l5.38,5.78,2.58,2.76a17,17,0,0,1,2.4,2.77,2,2,0,0,1-.46,2.7,4.42,4.42,0,0,1-3.22.8c-1.28-.08-2.55-.26-3.83-.37s-2.48-.2-3.72-.27a126.42,126.42,0,0,0-15.45,0c-1.24.08-2.48.18-3.72.29a14,14,0,0,0-3.22.47,3.53,3.53,0,0,0-1.94,1.35,1.58,1.58,0,0,0,.3,1.95,5.23,5.23,0,0,0,1.14.78l1.39.79c.86.49,1.73,1,2.6,1.42,1.83,1,3.67,1.93,5.49,2.92a52.86,52.86,0,0,1,10,6.6,26.14,26.14,0,0,1,4,4.4,4.2,4.2,0,0,1,1,3.1c-.23,1.07-1.3,1.54-2.24,1.84-4.65,1.48-9.61,1.61-14.43,2.07a35.55,35.55,0,0,0-12,2.82,16.66,16.66,0,0,0-8,7.14,11.64,11.64,0,0,0-.93,2.42.34.34,0,0,0,.66.18Z"></path><g><path class="cls-10" d="M784.34,380l32.5-20.74c-.24,1.61-.47,3.23-.7,4.84l-31.8,20.05-85-55.31v-3.45Z"></path><path class="cls-11" d="M784.34,380l32.5-20.74L724.2,306l-24.89,19.36Z"></path><line class="cls-12" x1="706.92" y1="324.68" x2="783.65" y2="374.45"></line><line class="cls-12" x1="710.38" y1="320.53" x2="787.11" y2="370.3"></line><line class="cls-12" x1="723.16" y1="311.2" x2="803.35" y2="358.2"></line><line class="cls-12" x1="715.21" y1="317.76" x2="791.6" y2="366.5"></line><line class="cls-12" x1="718.67" y1="313.62" x2="797.13" y2="362.35"></line><line class="cls-12" x1="708.65" y1="329.17" x2="730.08" y2="312.58"></line><line class="cls-12" x1="712.8" y1="332.63" x2="734.23" y2="316.03"></line><line class="cls-12" x1="717.63" y1="335.39" x2="739.06" y2="318.8"></line><line class="cls-12" x1="721.78" y1="338.85" x2="743.9" y2="321.57"></line><line class="cls-12" x1="726.62" y1="340.23" x2="748.05" y2="323.64"></line><line class="cls-12" x1="730.77" y1="343.69" x2="752.89" y2="325.71"></line><line class="cls-12" x1="735.61" y1="346.45" x2="757.73" y2="328.48"></line><line class="cls-12" x1="745.98" y1="351.98" x2="768.1" y2="334.01"></line><line class="cls-12" x1="750.13" y1="355.44" x2="772.25" y2="337.47"></line><line class="cls-12" x1="754.27" y1="358.9" x2="776.39" y2="340.92"></line><line class="cls-12" x1="759.8" y1="362.35" x2="781.92" y2="344.38"></line><line class="cls-12" x1="765.33" y1="364.43" x2="787.45" y2="346.45"></line><line class="cls-12" x1="769.48" y1="367.88" x2="792.99" y2="349.22"></line><line class="cls-12" x1="775.01" y1="371.34" x2="798.52" y2="352.67"></line><line class="cls-12" x1="739.76" y1="349.91" x2="762.57" y2="331.93"></line></g><path class="cls-10" d="M834.12,311.54c3.57,10.26,1.54,20.55-4.84,25.58a16.54,16.54,0,0,1-10.37,3.46c-4.2-.18-7.93-3.12-15.21-9-7.77-6.26-7.73-7.69-7.6-8.3.67-3.21,8-2,13.13-6.91,4-3.81,4.81-9.54,4.84-13.83Z"></path><path class="cls-10" d="M758.07,158.77,764.3,156q16.34,7.09,33.18,15.21a891,891,0,0,1,104.38,59.45l-2.76,121L895,353.71V235.5Z"></path><path class="cls-11" d="M758.07,158.77,756.69,274.9,895,353.71V235.5Z"></path><path class="cls-8" d="M762.22,171.21q.69,49.77,1.39,99.55L888.73,338.5Q887.35,288.73,886,239,824.1,205.08,762.22,171.21Z"></path></g><g><path class="cls-11" d="M825.05,380a11.27,11.27,0,0,0-6-2.07,10.36,10.36,0,0,0-5.79,1,12.73,12.73,0,0,0-6.93,9.4,32.86,32.86,0,0,0-.46,6.5.84.84,0,0,0,.31.78c1,0,1.9.18,2.86.22a20.29,20.29,0,0,0,9.58-2.25,24.42,24.42,0,0,0,6.49-4.41,13.32,13.32,0,0,0,3.36-5.37,5.19,5.19,0,0,0-2.07-2.8,8,8,0,0,0-5.52-1.17,16.47,16.47,0,0,0-9.08,4.08,10.71,10.71,0,0,1,3.47-2.58,15.08,15.08,0,0,1,6.87-1.76,6.93,6.93,0,0,1,2,.37C824.43,380.06,824.74,380.25,825.05,380Z"></path><path class="cls-10" d="M828.45,383.83c-.21,0-.27.16-.33.34a14.11,14.11,0,0,1-5.53,6.87,25.18,25.18,0,0,1-10,4.37,16.21,16.21,0,0,1-5.34.12,1.4,1.4,0,0,0-1.13.11,11.58,11.58,0,0,0,5,.65,25.93,25.93,0,0,0,7.79-2,16.51,16.51,0,0,0,8.93-7.71A3.34,3.34,0,0,0,828.45,383.83Z"></path><path class="cls-10" d="M825.05,380a16.31,16.31,0,0,0-2.79-.61,15.69,15.69,0,0,0-9.36,3.21,4,4,0,0,0-1.62,1.91c4.56-3.55,9.28-5.91,15.1-3.49C826.16,380.4,825.44,380.41,825.05,380Z"></path></g><g><path class="cls-13" d="M766.63,333.85a15.47,15.47,0,0,1-4.14,2.07c-3.7,1.18-6.67.51-6.92,1.38-.08.29.12.85,2.08,2.08a25.16,25.16,0,0,0,9.68,3.45C767.09,339.84,766.86,336.84,766.63,333.85Z"></path><path class="cls-13" d="M780.2,344.72,767.06,344a11.66,11.66,0,0,1-1.38-6.91c.18-1.4.36-2.83,1.38-3.46s2.34.14,7.61,2.77c4.58,2.29,5.74,2.71,6.22,4.15A5.41,5.41,0,0,1,780.2,344.72Z"></path><path class="cls-14" d="M717.29,320.53a49.21,49.21,0,0,1-26.52,8,114.7,114.7,0,0,0,7.47,32.19,52.82,52.82,0,0,0,26-30.47Z"></path><path class="cls-15" d="M715.21,516.86l-14.51-2.77a250.83,250.83,0,0,1-15.9-75.35c-10.06,8-28.94,20.24-54.27,21.78a87.31,87.31,0,0,1-14.72-.36c-1.23-2.66-2.69-5.75-4.64-9.32a189.93,189.93,0,0,1-15.76-37.92c14.69-3.55,35.33-8.11,60.35-12.2,34.38-5.62,39.6-4.25,42.86-2.77C730.61,412.47,717.41,502.59,715.21,516.86Z"></path><path class="cls-2" d="M700.42,513.67c.4,3,.79,6,1.19,9.05l41.92,3.71c-6.75-13-18.85-20.59-30.12-19.07A24.49,24.49,0,0,0,700.42,513.67Z"></path><path class="cls-4" d="M658.59,430.42c2.58,14,5.16,30.72,7.16,49.89,2.07,19.73,3.06,37.68,3.49,53.14h-5.76a534.51,534.51,0,0,1-10.26-59.54c-1.43-12.3-2.38-23.89-3-34.54Z"></path><path class="cls-4" d="M714.58,453.92c2.59,14,5.16,30.72,7.17,49.89,2.06,19.73,3.06,37.68,3.49,53.14h-5.77a536.43,536.43,0,0,1-10.26-59.54c-1.43-12.29-2.37-23.88-3-34.53Z"></path><path class="cls-4" d="M725.58,446.32A107.22,107.22,0,0,1,709.17,471c-9.17,10.27-23,25.71-42.82,26.18-4.56.11-16.84-.39-30.69-11.55q-4.63-15.41-9.28-30.81l89.21-28.49Z"></path><path class="cls-13" d="M748.4,534.14l-14.52-2.77A250.67,250.67,0,0,1,718,456c-10.06,8-28.94,20.24-54.27,21.78a88.42,88.42,0,0,1-14.72-.35c-1.23-2.67-2.69-5.76-4.63-9.33a190.4,190.4,0,0,1-15.77-37.92c14.69-3.55,35.34-8.11,60.36-12.2,34.37-5.62,39.6-4.24,42.86-2.76C763.79,429.75,750.6,519.88,748.4,534.14Z"></path><path class="cls-4" d="M637.38,487.79c-2.58,14-5.16,30.73-7.16,49.89-2.06,19.73-3.06,37.69-3.49,53.14h5.76a531.57,531.57,0,0,0,10.26-59.53c1.43-12.3,2.38-23.89,3-34.54Z"></path><path class="cls-4" d="M576.55,457.38c-2.58,14-5.16,30.72-7.16,49.89-2.07,19.73-3.06,37.68-3.5,53.14h5.77a534.51,534.51,0,0,0,10.26-59.54c1.43-12.3,2.37-23.89,3-34.54Z"></path><path class="cls-15" d="M628.8,460.86c1.24,2.78,12.2.35,20.05-1.38a155.85,155.85,0,0,0,42.86-16.59c-7.41-2.46-22.1-6.07-38-.69C639.88,446.86,627.31,457.53,628.8,460.86Z"></path><path class="cls-16" d="M639.17,283.2c-35,5.6-64.77,68.91-63.94,156.58a120,120,0,0,0,33.18,13.13c38.32,8.82,70.5-4,83.3-10-5.18-13.15-9.24-29.78-1.38-40.79,8.35-11.7,25.76-5.72,46.31-13.82,12.65-5,29.07-16.09,43.56-43.56l-13.83-3.45c-6.7,4.85-16.51,10.17-27,8.29-20.22-3.64-22.66-30.52-47.7-49.77C675.94,287.67,653.9,280.84,639.17,283.2Z"></path><path class="cls-17" d="M649,477.45a60.77,60.77,0,0,1-9.16-2,54.88,54.88,0,0,1-16.21-8,58.42,58.42,0,0,1-20.74-28.34l19-6.57,6.7-2.32a190.4,190.4,0,0,0,15.77,37.92C646.3,471.69,647.76,474.78,649,477.45Z"></path><path class="cls-18" d="M672.7,222c-5.38-1-13.52-1.67-20.05,2.76-11.7,8-5.46,23.59-17.28,38-9.65,11.79-18.89,7.55-30.42,18.66-6.79,6.55-14.19,18.25-15.21,40.79l51.85,33.87,18.67-26.27q-4.5,15.21-9,30.42l27,9c5.76-3.67,13.75-10.08,16.59-20,4.27-15-7.48-22.58-4.84-38.72s15.43-15.4,22.82-35.25c1.56-4.21,10.27-27.61-2.77-42.86C697.55,217.79,674.56,221.68,672.7,222Z"></path><path class="cls-15" d="M646.09,476.76a75.77,75.77,0,0,0,12.44,1.38c33.61,1,59.16-20.73,69.82-31.1-16.71,13-43,28.49-74.66,27-2.59-.13-5.13-.36-7.6-.7Z"></path><path class="cls-2" d="M733.6,531c.4,3,.8,6,1.19,9l41.93,3.71c-6.75-13-18.86-20.58-30.13-19.07A24.6,24.6,0,0,0,733.6,531Z"></path><path class="cls-2" d="M559.33,453.6A292,292,0,0,0,589.74,475c15.18,9.31,28.31,17.23,47,22.12a130.7,130.7,0,0,0,27.65,4.15,79.75,79.75,0,0,1-11.75-10.37c-24.62-26.52-17-55.51-38-91.25A124.93,124.93,0,0,0,596,375.49l-29-15.21a18.41,18.41,0,0,0-4.84,2.07C538.29,377,556.72,444.36,559.33,453.6Z"></path><path class="cls-5" d="M718.5,464.28A117.7,117.7,0,0,1,690,489.55c-12.58,7.91-20.37,12.81-29,11.06-3.71-.75-10-3.21-21.12-25.16-3.52-7-7.52-15.91-12.06-27.38-2.33-5.87-4.25-11-5.88-15.55-8.11-22.59-9.22-30.68-19-42.52-10.65-12.88-30.91-29.36-42.17-24.19-19,8.72-4.52,75.43-2.07,86.41-6.26-13.56-12.76-33.55-11.06-57.38.94-13.26,2.1-29.76,12.44-35.25,12.55-6.67,33.78,5.46,46.32,18.66,14.51,15.29,15.81,30.39,22.25,51.95a190.4,190.4,0,0,0,15.77,37.92c1.94,3.57,3.4,6.66,4.63,9.33,3.16,6.84,4.78,10.83,9.19,12.79,18.16,8.08,47.18-20.36,60.11-34.27A71.47,71.47,0,0,0,718.5,464.28Z"></path><path class="cls-13" d="M717.29,320.53a23.34,23.34,0,0,1,5.53-5.53c1.92-1.37,2.88-2.05,4.15-2.08,3-.06,3.72,3.32,8.29,6.23,4.35,2.76,7.48,2.11,7.61,3.45.17,1.86-5.68,5.08-9,3.46-1.15-.57-1.92-1.68-2.77-1.38s-.71,1.58-1.38,2.76-2.07,2.32-5.53,2.77Z"></path></g><g><polygon class="cls-19" points="881.67 237.97 770.86 188.65 770.28 195.83 881.15 247.22 881.67 237.97"></polygon><g><polygon class="cls-8" points="770.28 195.87 765.05 259.83 876.46 329.87 881.11 247.26 770.28 195.87"></polygon><g><path class="cls-20" d="M836,252,774,220.4c-.25-.13-.48,0-.5.32h0a.83.83,0,0,0,.42.77l62,31.8c.26.13.48,0,.5-.4h0A1,1,0,0,0,836,252Z"></path><path class="cls-20" d="M839.13,255,874,273.75c.25.14.48-.05.5-.44h0a1.08,1.08,0,0,0-.42-.94l-34.83-18.68c-.25-.13-.48.05-.5.4h0A1,1,0,0,0,839.13,255Z"></path><path class="cls-20" d="M814.34,236.47l60,31.21c.26.14.48-.06.5-.45h0a1,1,0,0,0-.42-.93l-60-31c-.25-.13-.48,0-.5.37h0A.93.93,0,0,0,814.34,236.47Z"></path><path class="cls-20" d="M811.24,233.66,774.4,215.57c-.26-.13-.48,0-.51.32h0a.87.87,0,0,0,.42.78l36.84,18.19c.26.13.48,0,.51-.37h0A.93.93,0,0,0,811.24,233.66Z"></path><path class="cls-20" d="M865.51,256.13h0a1,1,0,0,0,.42.92l8.72,4.55c.25.13.48-.07.5-.45h0a1.07,1.07,0,0,0-.42-.94L866,255.69C865.76,255.56,865.53,255.76,865.51,256.13Z"></path><path class="cls-20" d="M856.75,251.62h0a1,1,0,0,0,.42.9l5.21,2.69c.25.13.48-.06.5-.43h0a1,1,0,0,0-.42-.92l-5.21-2.67C857,251.06,856.77,251.25,856.75,251.62Z"></path><path class="cls-20" d="M821.16,233.05l-46.38-22.32c-.25-.12-.48,0-.5.33h0a.83.83,0,0,0,.41.77l46.39,22.45c.25.13.47-.05.5-.39h0A.93.93,0,0,0,821.16,233.05Z"></path><path class="cls-20" d="M793.62,214.4l-18.45-8.52c-.26-.11-.48,0-.51.34h0a.82.82,0,0,0,.42.76l18.45,8.58c.25.12.48-.05.5-.37h0A.84.84,0,0,0,793.62,214.4Z"></path><path class="cls-20" d="M796.3,216.26h0a.84.84,0,0,0,.41.79L875,255.51c.26.13.48-.08.5-.46h0a1,1,0,0,0-.42-.93L796.8,215.89C796.54,215.77,796.32,215.93,796.3,216.26Z"></path><path class="cls-20" d="M838.88,276.55l-66.39-37.14c-.25-.14-.48,0-.5.3h0a.88.88,0,0,0,.41.79l66.4,37.32c.25.15.48,0,.5-.37h0A1,1,0,0,0,838.88,276.55Z"></path><path class="cls-20" d="M854.35,286.89l18.24,10.79c.25.15.48,0,.5-.41h0a1.14,1.14,0,0,0-.42-1l-18.24-10.74c-.26-.15-.48,0-.5.39h0A1.05,1.05,0,0,0,854.35,286.89Z"></path><path class="cls-20" d="M841.57,278.76h0a1.05,1.05,0,0,0,.42.91l9.16,5.35c.26.14.48,0,.5-.39h0a1.05,1.05,0,0,0-.42-.93l-9.16-5.31C841.82,278.24,841.6,278.41,841.57,278.76Z"></path><path class="cls-20" d="M820.94,262l52,29.68c.26.15.48,0,.5-.41h0a1.09,1.09,0,0,0-.42-1l-52-29.54c-.25-.14-.48,0-.5.36h0A1,1,0,0,0,820.94,262Z"></path><path class="cls-20" d="M801.46,244.62l-28.2-14.81c-.25-.13-.48,0-.5.31h0a.85.85,0,0,0,.41.78l28.2,14.89c.26.14.48,0,.51-.34h0A.93.93,0,0,0,801.46,244.62Z"></path><path class="cls-20" d="M861.64,277.59l-57-31.27c-.26-.14-.48,0-.51.34h0a1,1,0,0,0,.42.84l57,31.43c.26.14.48,0,.5-.41h0A1.05,1.05,0,0,0,861.64,277.59Z"></path><path class="cls-20" d="M864.75,280.74l8.53,4.86c.26.14.48-.05.5-.43h0a1.12,1.12,0,0,0-.42-.95l-8.53-4.83c-.25-.15-.47,0-.5.41h0A1.11,1.11,0,0,0,864.75,280.74Z"></path><path class="cls-20" d="M783,229.76,773.65,225c-.26-.13-.48,0-.51.31h0a.86.86,0,0,0,.42.78l9.37,4.79c.26.13.48,0,.51-.32h0A.9.9,0,0,0,783,229.76Z"></path><path class="cls-20" d="M786.19,232h0a.88.88,0,0,0,.42.8l8.6,4.45c.25.13.48,0,.5-.34h0a.9.9,0,0,0-.42-.82l-8.6-4.42C786.44,231.51,786.21,231.66,786.19,232Z"></path><path class="cls-20" d="M798.39,238.88l75.24,40.66c.25.14.48-.05.5-.43h0a1.1,1.1,0,0,0-.42-.95l-75.23-40.45c-.26-.13-.48,0-.5.35h0A.91.91,0,0,0,798.39,238.88Z"></path><path class="cls-20" d="M790.42,255.63,772,245.29c-.26-.15-.48,0-.51.28h0a.9.9,0,0,0,.42.8l18.41,10.4c.25.14.48,0,.5-.31h0A.94.94,0,0,0,790.42,255.63Z"></path><path class="cls-20" d="M793.53,258.59l78.63,46.49c.26.16.48,0,.5-.4h0a1.14,1.14,0,0,0-.42-1l-78.63-46.27c-.25-.14-.48,0-.5.31h0A1,1,0,0,0,793.53,258.59Z"></path><path class="cls-20" d="M771.17,255.7,828.44,290c.26.16.48,0,.5-.34h0a1,1,0,0,0-.42-.9l-57.26-34.12a.31.31,0,0,0-.5.28h0A.92.92,0,0,0,771.17,255.7Z"></path><path class="cls-20" d="M831.64,291.94l25.58,15.89c.25.16.47,0,.5-.37h0a1.16,1.16,0,0,0-.42-1l-25.58-15.82c-.25-.15-.48,0-.5.35h0A1.08,1.08,0,0,0,831.64,291.94Z"></path><path class="cls-20" d="M860.41,309.84l11.07,7c.26.16.48,0,.5-.39h0a1.14,1.14,0,0,0-.42-1l-11.07-7c-.25-.16-.48,0-.5.37h0A1.16,1.16,0,0,0,860.41,309.84Z"></path><path class="cls-20" d="M818.63,278.41l53.2,32.42c.25.16.48,0,.5-.4h0a1.17,1.17,0,0,0-.42-1l-53.19-32.27c-.26-.15-.48,0-.51.34h0A1,1,0,0,0,818.63,278.41Z"></path><path class="cls-20" d="M810.4,272.9h0a1,1,0,0,0,.42.87l4.62,2.74c.25.15.48,0,.5-.33h0a1,1,0,0,0-.42-.88l-4.62-2.73C810.65,272.42,810.42,272.57,810.4,272.9Z"></path><path class="cls-20" d="M797.92,265.57h0a1,1,0,0,0,.42.85l9.28,5.46c.26.15.48,0,.51-.32h0a1,1,0,0,0-.42-.87l-9.29-5.43C798.17,265.11,797.94,265.25,797.92,265.57Z"></path><path class="cls-20" d="M779.33,254.23l-7.68-4.38c-.26-.15-.48,0-.51.28h0a1,1,0,0,0,.42.8l7.68,4.41c.26.14.48,0,.51-.29h0A1,1,0,0,0,779.33,254.23Z"></path></g></g><path class="cls-21" d="M774.15,193.7c0,.65-.53,1-1.08.76a1.69,1.69,0,0,1-.89-1.6c.05-.65.54-1,1.08-.76A1.67,1.67,0,0,1,774.15,193.7Z"></path><path class="cls-21" d="M777.81,195.27c0,.66-.54,1-1.08.76a1.66,1.66,0,0,1-.89-1.61c0-.66.53-1,1.07-.77A1.7,1.7,0,0,1,777.81,195.27Z"></path><path class="cls-21" d="M781.46,196.84c-.05.66-.53,1-1.08.78a1.73,1.73,0,0,1-.89-1.63c0-.66.53-1,1.08-.78A1.71,1.71,0,0,1,781.46,196.84Z"></path></g></g><g><path class="cls-17" d="M544,137v34l-7-3V133l59-34,7,4Z"></path><path class="cls-22" d="M544,137v34l-7-3V133Z"></path><path class="cls-18" d="M544,137v34l59-32V103Z"></path><g><path class="cls-23" d="M560.86,152.12a5.41,5.41,0,0,1-3.72.5,3.81,3.81,0,0,1-2.38-2.14,10,10,0,0,1-.83-4.38,15.71,15.71,0,0,1,.84-5.15,13.6,13.6,0,0,1,2.38-4.31,10.77,10.77,0,0,1,3.74-2.9,5,5,0,0,1,4.19-.42,4.47,4.47,0,0,1,2.34,3.05L565,138.32a3,3,0,0,0-1.43-2,3.07,3.07,0,0,0-2.64.25,6.51,6.51,0,0,0-2.44,1.93,8.53,8.53,0,0,0-1.47,2.9,12.8,12.8,0,0,0-.5,3.58,8.41,8.41,0,0,0,.49,3.14,2.54,2.54,0,0,0,1.46,1.57,3.28,3.28,0,0,0,2.43-.31,6.32,6.32,0,0,0,2.64-2.16,9.29,9.29,0,0,0,1.45-3.36l2.44-.28a14.13,14.13,0,0,1-2.36,5.19A10.39,10.39,0,0,1,560.86,152.12Z"></path><path class="cls-23" d="M575.54,145.56a5.78,5.78,0,0,1-2.86.59,3,3,0,0,1-2.08-1,4.56,4.56,0,0,1-1-2.54l2.52-1.61a2.39,2.39,0,0,0,1.31,1.86,2.81,2.81,0,0,0,2.31-.17,6,6,0,0,0,1.46-.95,5.39,5.39,0,0,0,1.11-1.38,3.22,3.22,0,0,0,.44-1.61,1.85,1.85,0,0,0-.1-.65.94.94,0,0,0-.29-.43,1.22,1.22,0,0,0-.5-.23,2.67,2.67,0,0,0-.71,0l-3.74.33a6,6,0,0,1-1,0,2.34,2.34,0,0,1-1.05-.32,2.06,2.06,0,0,1-.81-.94,4.34,4.34,0,0,1-.31-1.83,7.62,7.62,0,0,1,.72-3.22,8.9,8.9,0,0,1,1.93-2.65,9.71,9.71,0,0,1,2.69-1.83,5.68,5.68,0,0,1,2.66-.61,2.83,2.83,0,0,1,2,.89,4.74,4.74,0,0,1,1.09,2.33l-2.62,1.77A2.46,2.46,0,0,0,578,130a1.68,1.68,0,0,0-1.11-.5,3.25,3.25,0,0,0-1.41.28,5.3,5.3,0,0,0-1.35.9,4.79,4.79,0,0,0-1,1.26,3,3,0,0,0-.39,1.39,1.17,1.17,0,0,0,.32.93,1.26,1.26,0,0,0,.8.29,5.29,5.29,0,0,0,1,0l2.59-.3a10.78,10.78,0,0,1,1.2-.07,3.07,3.07,0,0,1,1.27.26,2.1,2.1,0,0,1,1,1,4.34,4.34,0,0,1,.38,2.06,7.71,7.71,0,0,1-.49,2.67,9.21,9.21,0,0,1-1.27,2.33,10.41,10.41,0,0,1-1.82,1.87A10.65,10.65,0,0,1,575.54,145.56Z"></path><path class="cls-23" d="M589.06,139.52a5.68,5.68,0,0,1-2.86.59,3.11,3.11,0,0,1-2.07-1.05,4.76,4.76,0,0,1-1-2.6l2.52-1.62a2.43,2.43,0,0,0,1.3,1.9,2.77,2.77,0,0,0,2.3-.15,5.42,5.42,0,0,0,1.46-1,5.12,5.12,0,0,0,1.12-1.39,3.42,3.42,0,0,0,.45-1.63,1.91,1.91,0,0,0-.1-.66.92.92,0,0,0-.29-.44,1.17,1.17,0,0,0-.5-.24,2.22,2.22,0,0,0-.7,0l-3.74.31a7.13,7.13,0,0,1-1,0,2.37,2.37,0,0,1-1-.34,2.22,2.22,0,0,1-.8-1,4.37,4.37,0,0,1-.3-1.87,7.74,7.74,0,0,1,.73-3.27,9.15,9.15,0,0,1,1.94-2.68,9.67,9.67,0,0,1,2.68-1.83,5.47,5.47,0,0,1,2.66-.6,2.8,2.8,0,0,1,1.94.91,4.75,4.75,0,0,1,1.08,2.38l-2.62,1.78a2.53,2.53,0,0,0-.6-1.36,1.7,1.7,0,0,0-1.11-.52,2.92,2.92,0,0,0-1.4.28,4.72,4.72,0,0,0-1.35.89,5.09,5.09,0,0,0-1,1.28,3,3,0,0,0-.39,1.41,1.21,1.21,0,0,0,.31,1,1.35,1.35,0,0,0,.8.3,5.27,5.27,0,0,0,1,0L591,128a8.72,8.72,0,0,1,1.2-.07,3.12,3.12,0,0,1,1.27.27,2.13,2.13,0,0,1,1,1,4.33,4.33,0,0,1,.38,2.09,8.25,8.25,0,0,1-.5,2.72,9.37,9.37,0,0,1-1.28,2.35,10.38,10.38,0,0,1-4,3.19Z"></path></g></g><g><path class="cls-17" d="M544,193v34l-7-3V189l59-34,7,4Z"></path><path class="cls-22" d="M544,193v34l-7-3V189Z"></path><path class="cls-18" d="M544,193v34l59-32V159Z"></path><g><path class="cls-23" d="M548.6,214.6l-1.19-16.95,2.42-1.27.5,7.15,6.85-3.55-.49-7.19,2.42-1.27,1.14,17.14-2.4,1.22-.49-7.22-6.84,3.53.49,7.18Z"></path><path class="cls-23" d="M566.53,205.45l-.95-14.54-4.68,2.46-.18-2.69,11.81-6.21.17,2.72L568,189.64l.93,14.57Z"></path><path class="cls-23" d="M575.22,201l-1.08-17.37,2.18-1.15,5.76,9.73,4.27-15,2.19-1.15,1,17.61-2.25,1.16-.67-11.27-3.77,13.55-1,.5-5.11-8.9.68,11.17Z"></path><path class="cls-23" d="M592.57,192.06l-1-17.66,2.43-1.28.85,14.92,6.38-3.32.16,2.8Z"></path></g></g><g><path class="cls-17" d="M544,249v34l-7-3V245l59-34,7,4Z"></path><path class="cls-22" d="M544,249v34l-7-3V245Z"></path><path class="cls-18" d="M544,249v34l59-32V215Z"></path><g><path class="cls-23" d="M562.41,263.68a5.52,5.52,0,0,1-3.72.72,3.53,3.53,0,0,1-2.37-2,9.53,9.53,0,0,1-.83-4.34,16.14,16.14,0,0,1,.83-5.2,14.4,14.4,0,0,1,2.39-4.46,11.49,11.49,0,0,1,3.74-3.13c1.67-.89,3.07-1.11,4.18-.68a4.09,4.09,0,0,1,2.34,2.91l-2.45,2.11a2.77,2.77,0,0,0-1.44-2,3.14,3.14,0,0,0-2.64.41,7.22,7.22,0,0,0-2.44,2.08,9.16,9.16,0,0,0-1.46,3,13.19,13.19,0,0,0-.51,3.62,8.37,8.37,0,0,0,.49,3.11,2.35,2.35,0,0,0,1.46,1.48,3.33,3.33,0,0,0,2.44-.45,6.94,6.94,0,0,0,2.63-2.33,9.92,9.92,0,0,0,1.45-3.44l2.44-.43a15.13,15.13,0,0,1-2.35,5.34A11.34,11.34,0,0,1,562.41,263.68Z"></path><path class="cls-23" d="M574.55,253.83l0-4.47-3.6,1.86v-2.34l3.61-1.88,0-4.45,1.91-1,0,4.47,3.59-1.87,0,2.38-3.58,1.85,0,4.48Z"></path><path class="cls-23" d="M586.05,248l0-4.54-3.6,1.86,0-2.38,3.6-1.87,0-4.53,1.91-1,0,4.54,3.59-1.86,0,2.41L588,242.44l0,4.55Z"></path></g></g><g><path class="cls-13" d="M673,209l-10-3-8-6,10-4Z"></path><path class="cls-24" d="M698,129l-9-4-48,27,8,5Z"></path><path class="cls-13" d="M641,152q-.5,26.5-1,53l9,4V157Z"></path><path class="cls-11" d="M698,129v54l-18.53,9.83L673,209l-8.85-8L649,209V157Z"></path><g><path class="cls-23" d="M660.84,189.12l-7-4.16,7-12.84,2.18,1.27-5,9,5,2.78Z"></path><path class="cls-23" d="M679.29,154.55,673.58,184l-3.51,2.14,5.69-29.35Z"></path><path class="cls-23" d="M686.24,170.86l5-9.13-4.94-2.95,2.21-4.1,6.92,4.44-7,13.13Z"></path></g></g><g><g><path class="cls-13" d="M869,196l10-3,8-6-10-4Z"></path><path class="cls-24" d="M844,116l9-4,48,27-8,5Z"></path><path class="cls-13" d="M901,139q.5,26.5,1,53l-9,4V144Z"></path><path class="cls-11" d="M844,116v54l18.53,9.83L869,196l8.85-8L893,196V144Z"></path></g><path class="cls-23" d="M860.45,165.51l1-6.75-3.27-1.08V154l3.92,1.28.64-4.25-3.43-1.1v-3.68l4,1.27,1-6.61,3.59,1.11-1,6.64,3.68,1.16,1-6.65,3.59,1.11-1,6.68,3.23,1v3.75l-3.79-1.22-.65,4.3,3.35,1.09v3.71l-4-1.3-1,6.85L867.76,168l1-6.82L865.09,160l-1,6.79Zm9-7.82.64-4.28-3.67-1.18-.65,4.26Z"></path></g><g><g><path class="cls-13" d="M797,157l10-3,8-6-10-4Z"></path><path class="cls-24" d="M772,77l9-4,48,27-8,5Z"></path><path class="cls-13" d="M829,100q.5,26.5,1,53l-9,4V105Z"></path><path class="cls-11" d="M772,77v54l18.53,9.83L797,157l8.85-8L821,157V105Z"></path></g><g><polygon class="cls-23" points="817.85 121.63 814.35 131.05 812.01 129.99 810.67 122.78 808.49 128.39 806.16 127.34 804.02 115.69 806.64 116.81 807.7 123.78 809.81 118.17 812.06 119.14 813.41 126.31 815.3 120.53 817.85 121.63"></polygon><polygon class="cls-23" points="802.96 115.24 799.42 124.3 797.1 123.26 795.75 116.28 793.56 121.67 791.24 120.63 789.1 109.36 791.72 110.47 792.77 117.21 794.92 111.82 797.14 112.76 798.49 119.71 800.38 114.14 802.96 115.24"></polygon><polygon class="cls-23" points="788.04 108.92 784.54 117.65 782.21 116.62 780.83 109.85 778.64 115.04 776.32 114.02 774.17 103.12 776.8 104.21 777.85 110.72 780 105.55 782.22 106.47 783.57 113.2 785.46 107.83 788.04 108.92"></polygon></g></g></svg> 